<svg width="384" height="400" viewBox="0 0 384 400" fill="none" xmlns="http://www.w3.org/2000/svg">
<path d="M161.333 43.4667C111.733 54.2667 72.2667 86.9333 54.8 131.733C36.2667 179.067 43.7333 236.8 73.7333 276.667C102.133 314.533 148.533 337.333 197.333 337.333C209.6 337.333 237.733 333.333 243.333 330.8C244.8 330.133 248.4 328.8 251.333 327.867C254.267 327.067 259.333 325.2 262.4 323.733C271.6 319.733 270.4 321.867 261.067 326.533C233.2 340.133 193.733 345.067 162 338.667C117.333 329.6 84.4 308 60.5333 271.733C29.6 224.933 25.0667 170.533 48 121.733C57.0667 102.533 67.6 88.8 88 70.1333C95.0667 63.7333 96.2667 62.2667 92 65.2C83.8667 70.9333 69.0667 85.4666 62.1333 94.5333C29.7333 136.667 22.1333 197.2 42.5333 248.4C63.7333 301.2 109.6 336.533 168 344.8C244.133 355.6 314.933 316.267 341.2 248.4C348 230.8 350 219.2 350 195.067C350 180.533 350.533 172.667 351.333 173.467C353.333 175.467 354.8 174.8 353.6 172.267C352.933 171.067 350.533 163.333 348.267 155.333C346 147.2 342.667 137.333 340.933 133.2C336.667 123.867 323.333 106.133 314.267 97.8667C306.533 90.9333 292.533 81.3333 290 81.3333C289.067 81.3333 287.867 82.9333 287.333 84.9333C286.667 87.6 287.067 88.8 288.933 89.7333C294.4 92.6667 307.6 107.733 311.067 115.2C316.933 127.6 317.2 133.2 311.333 121.733C305.867 110.667 296 99.3333 288.267 95.0667L283.067 92.1333L278.667 96.6667L274.4 101.067L278.267 103.067C287.733 108 299.2 125.2 300.8 136.933C301.467 141.733 301.2 141.467 296.533 132.933C292 124.533 279.067 110.667 275.733 110.667C275.067 110.667 276.8 113.333 279.733 116.667C287.333 125.333 291.867 137.467 292.933 152C293.467 160.4 293.333 164 292.267 164C291.467 164 290.4 161.733 290 158.933C286.4 137.733 274.4 120 258.533 113.067C256.4 112.133 254.667 110.8 254.667 110C254.8 109.333 257.867 107.2 261.733 105.467C271.333 100.933 280.4 92 284 83.6C287.333 76.1333 289.067 60.4 287.2 56.9333C286.133 54.9333 285.2 55.2 280 58.6667C272.133 63.8667 255.333 71.0667 241.067 75.4666C229.867 78.8 229.333 79.2 229.333 82.8C229.333 85.8667 230.133 86.8 233.733 87.8667L238 89.0667L233.867 89.2C227.733 89.3333 225.067 86.8 226.133 81.6C227.2 76.5333 227.733 76.1333 242.267 71.8667C248.4 70.1333 253.333 68.2667 253.333 67.8667C253.333 66.5333 242.4 65.3333 223.733 64.4C208.933 63.7333 206 63.8667 201.333 66C195.867 68.5333 194.8 70 197.733 71.0667C198.533 71.3333 192 72 183.2 72.6667L167.067 73.6L162.133 79.3333C154.533 88.4 152.133 93.4667 153.467 96.9333C154.667 100.4 156 100.8 158.4 98.4C159.6 97.2 160.267 97.8667 161.467 101.067C162.933 105.333 164.533 106.4 165.867 104.133C166.267 103.467 165.733 102.667 164.667 102.133C163.6 101.733 162.667 100.533 162.667 99.3333C162.667 95.8667 183.333 96.1333 206.4 100C222.267 102.667 220.533 103.2 200.933 101.467C188.8 100.267 187.067 100.533 175.2 103.867C164 107.067 162.133 108.133 159.067 112.4C154.533 118.8 154.8 122.667 160.4 131.733C168.133 144.267 169.067 144.667 191.067 144.667C209.6 144.667 210.267 144.533 221.2 140.133L232.267 135.467L238.267 138.667C244.533 142 254 153.333 259.6 164.533C261.467 168.133 264.4 176.8 266.133 183.733C275.867 222.267 261.733 269.2 230.933 299.6C225.467 304.933 221.6 309.333 222.267 309.333C222.8 309.333 227.467 307.867 232.533 306C277.867 289.6 304.8 259.2 312.933 215.6C315.733 200 315.733 174.267 312.8 157.067C310.267 141.467 310.267 137.6 312.667 144.267C317.733 158.133 320.4 175.333 320.4 195.333C320.4 206.267 320 217.333 319.467 219.6C318.8 222.133 318.933 224 319.733 224C321.6 224 326.667 198.267 326.667 188.267C326.667 183.333 327.333 178.4 328 177.333C330.133 174 329.6 206.533 327.333 217.6C320 252.533 287.6 287.867 246.933 305.067C226.8 313.6 217.6 315.333 190.667 315.333C167.467 315.333 165.2 315.067 153.333 311.467C130.133 304.667 113.2 295.333 98 281.067C48.9333 235.2 38.2667 159.733 73.2 106.267C92.4 77.0667 125.2 54.6667 162.133 45.3333C178 41.4667 177.467 40 161.333 43.4667ZM282 70.9333C278.667 81.8667 268.533 93.7333 252.133 105.867L243.733 112.267L235.2 108C230.533 105.733 226.4 103.467 226.133 102.8C225.2 101.467 243.867 90.4 245.733 91.0667C246.667 91.3333 244.933 92.8 242 94.4C235.2 98 229.467 102.533 231.733 102.667C234.8 102.667 253.2 91.3333 251.867 90.1333C251.6 89.8667 248.667 88.4 245.467 86.6667C242.267 85.0667 240.267 83.3333 240.8 82.8C241.467 82.2667 246.8 80.8 252.533 79.6C258.267 78.4 267.067 75.3333 271.867 72.8C282.533 67.3333 283.067 67.2 282 70.9333ZM165.733 95.6C164 95.8667 161.067 95.8667 159.067 95.6C156.933 95.3333 158.4 95.0667 162 95.0667C165.733 95.0667 167.333 95.3333 165.733 95.6ZM181.733 115.333C184.533 116.8 187.067 116.933 193.067 116C197.2 115.2 200.933 114.667 201.2 114.667C201.467 114.667 200.933 115.6 200 116.667C197.867 119.2 180.667 124.533 178 123.467C174.667 122.267 175.733 118.933 179.733 118.267C182.267 117.867 181.6 117.733 177.733 117.467C172.267 117.333 170.133 115.6 173.733 114.267C176.4 113.067 177.867 113.333 181.733 115.333ZM209.333 121.2C209.333 121.733 205.867 123.867 201.733 125.733C194.667 128.933 194.4 129.2 197.6 130C199.6 130.533 201.867 130.533 202.533 130C203.333 129.6 204 129.733 204 130.4C204 132 195.867 135.333 189.2 136.533C185.467 137.2 184.133 136.933 183.467 135.333C183.067 134 183.6 132.933 185.067 132.4C186.933 131.6 186.8 131.333 184 130.667C182.133 130.267 180.533 128.933 180.267 127.867C180 126.4 182.533 125.333 190.267 123.6C209.333 119.6 209.333 119.6 209.333 121.2Z" fill="white"/>
<path d="M189.067 130.267C190 130.667 191.2 130.533 191.6 130.133C192.133 129.733 191.333 129.333 189.867 129.467C188.4 129.467 188 129.867 189.067 130.267Z" fill="white"/>
<path d="M297.6 75.6L291.867 77.6L296.933 80.8C303.6 84.9333 304.8 84.8 305.867 79.8667C307.333 72.2667 307.333 72.2667 297.6 75.6Z" fill="white"/>
<path d="M139.2 102.133C134.933 104.667 130.4 107.867 129.2 109.067C128 110.267 125.067 117.6 122.667 125.333C120.4 133.067 117.333 140.533 115.867 142.133C114.533 143.6 113.333 145.333 113.333 145.867C113.333 147.6 122.133 161.6 125.333 165.067L128.133 168L134.4 163.733C142.667 158 154.533 152 157.467 152C159.733 152 165.333 146.133 165.333 143.733C165.333 142.933 164.133 142.133 162.667 141.733C161.2 141.333 160.4 140.533 160.8 139.867C162.133 137.6 158.267 138.667 152.4 142C144.8 146.533 144.933 144 152.667 139.067C155.867 137.067 158.533 134.933 158.667 134.267C158.667 132.267 155.067 133.467 147.6 138C143.333 140.533 139.467 142.667 139.067 142.667C137.333 142.667 143.333 137.067 148.933 133.6C152 131.6 154.667 129.6 154.667 129.067C154.667 128 149.867 129.6 145.2 132C140.667 134.533 142.4 131.067 147.2 128.267C150.667 126.267 151.733 124.533 152.4 120.4C152.933 117.6 154.8 113.333 156.533 110.8C160.267 105.733 159.733 102.667 155.333 102.667C153.467 102.667 152 101.733 151.6 100C150.667 96.2667 148.267 96.6667 139.2 102.133Z" fill="white"/>
<path d="M174.267 98.2667C173.733 98.6667 173.333 99.6 173.333 100.133C173.333 101.333 178.533 100 179.467 98.5334C180.267 97.2 175.6 96.9334 174.267 98.2667Z" fill="white"/>
<path d="M113.6 123.067C109.733 126.933 106.667 130.533 106.667 131.067C106.667 132.4 112.267 140 113.2 140C114.933 140 122.267 117.867 121.067 116.533C120.8 116.267 117.333 119.2 113.6 123.067Z" fill="white"/>
<path d="M230.667 139.867C230.667 140.533 232.8 145.067 235.333 149.733C246.933 171.733 248 196.533 238.533 221.333C234.667 231.467 223.2 251.067 216 259.867C213.867 262.4 212.4 264.8 212.8 265.2C213.733 266.267 232.933 246.933 239.333 238.4C242.4 234.267 245.333 231.067 245.733 231.467C246.8 232.533 242 245.867 237.333 255.333C231.467 267.333 222.267 277.467 207.333 288.8C205.867 289.867 206.933 289.6 210 288.133C232.4 277.2 254 246.8 260.133 217.6C262 208.533 261.867 187.867 260 179.333C257.467 168 249.6 153.467 241.867 145.733C235.467 139.333 230.667 136.8 230.667 139.867Z" fill="white"/>
<path d="M219.6 143.6C216 145.333 213.333 147.2 213.6 147.733C213.867 148.267 216.533 153.733 219.733 160C231.867 184.267 232.4 211.333 221.067 240C219.467 244 217.6 248.133 216.933 249.067C216.133 250 215.867 251.067 216.267 251.333C217.333 252.4 227.733 236.267 232.667 226C240.8 208.8 243.333 186.8 239.333 169.6C237.333 161.067 229.333 142.267 227.2 140.933C226.533 140.533 223.067 141.733 219.6 143.6Z" fill="white"/>
<path d="M164.8 149.467C162.133 153.333 162.133 154.667 164.667 154.667C171.2 154.667 188.8 165.867 192.133 172.267C194.133 175.867 188.933 181.2 179.6 185.333C175.733 186.933 171.6 188.8 170.267 189.467C167.2 191.067 156.933 184.267 153.2 178.267C151.867 175.867 150.667 174.667 150.667 175.467C150.667 177.2 157.733 186.4 160.933 188.667C162.267 189.733 162.8 191.2 162.267 192.667C161.467 194.4 161.867 194.8 163.333 194.133C164.667 193.733 165.067 193.867 164.667 194.8C162.8 197.733 157.067 198.8 154 196.8C151.067 194.933 150.8 195.067 149.333 198.8C147.867 202.133 148 203.067 150 205.333C151.467 206.933 154.133 208 156.533 208C160.8 208 169.333 203.6 169.333 201.467C169.333 200.8 174 197.867 179.733 195.067C191.2 189.467 198.933 183.067 201.333 177.333C202.667 174.133 202.4 172.667 199.467 166.933C196.4 160.8 188.533 152.933 182 149.6C180.533 148.933 176.533 147.867 173.2 147.333C167.733 146.533 166.8 146.8 164.8 149.467Z" fill="white"/>
<path d="M194.933 154.933C206.533 166.133 209.733 174 209.467 191.2C209.333 203.733 205.067 217.6 197.2 231.333C190.533 242.8 194.8 239.6 202.933 227.067C206 222.4 208.933 218.667 209.6 218.667C211.467 218.667 209.333 229.467 205.867 237.2C200.533 249.2 193.733 256.933 177.467 269.467C172.8 273.067 169.333 276 169.733 276C172.667 276 191.2 263.2 199.467 255.6C210.667 245.067 218.267 233.867 222.8 220.667C225.467 212.933 226 208.8 225.867 197.333C225.733 181.067 222.667 169.733 214.8 156.667L210 148.667L198.667 148.267L187.467 147.867L194.933 154.933Z" fill="white"/>
<path d="M151.733 157.6C149.867 159.067 147.467 165.333 148.667 165.333C148.933 165.333 151.2 164.133 153.6 162.8C156 161.467 160.133 159.733 162.667 159.2C167.2 158.267 167.2 158.133 164 157.2C158.667 155.733 154 155.867 151.733 157.6Z" fill="white"/>
<path d="M137.733 165.467C135.333 167.067 133.333 168.533 133.333 168.933C133.333 169.333 134.933 168.667 136.8 167.333C140.8 164.667 144 165.467 143.2 168.933C142.8 170.267 143.467 174 144.4 177.333L146.267 183.333L146.133 173.067C146 161.333 145.2 160.667 137.733 165.467Z" fill="white"/>
<path d="M130.667 170.667C130.667 171.733 132.533 174.8 134.8 177.333L138.933 182L135.867 176.667C132.133 169.867 130.667 168.267 130.667 170.667Z" fill="white"/>
<path d="M180 176.267C176.8 180 172.267 183.867 170 184.8C167.067 186.133 166.667 186.533 168.667 186.533C172.667 186.667 182.8 181.733 186.933 177.733C189.867 174.933 190.267 173.733 189.2 171.867C188.533 170.4 187.467 169.333 186.933 169.333C186.4 169.467 183.333 172.533 180 176.267Z" fill="white"/>
<path d="M204.133 180.133C203.867 183.733 195.733 190.133 183.6 195.867C177.2 198.933 171.067 202.933 169.867 204.667C167.733 208 161.733 210.667 156.533 210.667C153.733 210.667 153.333 211.333 153.333 215.467C153.333 220.667 158.267 238.667 159.6 238.667C160 238.667 160 234.667 159.467 229.6C158.8 221.333 158.8 220.933 160.667 224C161.733 225.867 162.667 228.267 162.667 229.333C162.667 230.4 163.867 233.733 165.333 236.667L168 242L167.2 233.333C166.8 228.533 166.133 223.067 166 221.067C165.2 214.267 167.6 216 169.067 223.333C170.533 230.533 176.533 241.333 178.933 241.333C179.733 241.333 179.867 240.267 179.333 238.933C177.333 234.4 176 224.933 176.8 221.467C178.933 211.6 185.067 200.667 191.2 195.867C196.8 191.467 204 193.2 204 199.067C204 200.4 204.667 201.067 205.333 200.667C206.933 199.733 206.933 184.4 205.333 180.667C204.533 178.8 204.133 178.533 204.133 180.133Z" fill="white"/>
</svg>
